<svg width="24" height="25" viewBox="0 0 24 25" fill="none" xmlns="http://www.w3.org/2000/svg">
<g clip-path="url(#clip0_777_368)">
<path d="M18.05 18.29C17.9571 18.1963 17.8465 18.1219 17.7246 18.0711C17.6028 18.0203 17.472 17.9942 17.34 17.9942C17.208 17.9942 17.0773 18.0203 16.9555 18.0711C16.8336 18.1219 16.723 18.1963 16.63 18.29L13 21.92V1.5C13 1.23478 12.8947 0.980429 12.7071 0.792893C12.5196 0.605357 12.2653 0.5 12 0.5V0.5C11.7348 0.5 11.4805 0.605357 11.2929 0.792893C11.1054 0.980429 11 1.23478 11 1.5V21.91L7.38004 18.29C7.29432 18.1728 7.18412 18.0757 7.05708 18.0054C6.93005 17.9351 6.78922 17.8933 6.6444 17.8829C6.49958 17.8725 6.35424 17.8938 6.21847 17.9452C6.0827 17.9967 5.95976 18.0771 5.85821 18.1809C5.75665 18.2846 5.67891 18.4093 5.63038 18.5461C5.58185 18.683 5.56371 18.8287 5.57721 18.9733C5.5907 19.1178 5.63552 19.2577 5.70854 19.3832C5.78156 19.5087 5.88103 19.6168 6.00004 19.7L9.92004 23.62C10.4825 24.1818 11.245 24.4974 12.04 24.4974C12.835 24.4974 13.5975 24.1818 14.16 23.62L18.08 19.7C18.2624 19.5087 18.3615 19.253 18.3559 18.9888C18.3503 18.7246 18.2403 18.4734 18.05 18.29Z" fill="#D0358C"/>
</g>
<defs>
<clipPath id="clip0_777_368">
<rect width="24" height="24" fill="white" transform="translate(0 0.5)"/>
</clipPath>
</defs>
</svg>
