<svg width="16" height="17" viewBox="0 0 16 17" fill="none" xmlns="http://www.w3.org/2000/svg">
<path d="M12.6667 13.8332H3.33333C2.4496 13.8321 1.60237 13.4806 0.97748 12.8557C0.352588 12.2308 0.00105857 11.3836 0 10.4998L0 6.49984C0.00105857 5.61611 0.352588 4.76888 0.97748 4.14398C1.60237 3.51909 2.4496 3.16756 3.33333 3.1665H12.6667C13.5504 3.16756 14.3976 3.51909 15.0225 4.14398C15.6474 4.76888 15.9989 5.61611 16 6.49984V10.4998C15.9989 11.3836 15.6474 12.2308 15.0225 12.8557C14.3976 13.4806 13.5504 13.8321 12.6667 13.8332ZM3.33333 4.49984C2.8029 4.49984 2.29419 4.71055 1.91912 5.08562C1.54405 5.4607 1.33333 5.9694 1.33333 6.49984V10.4998C1.33333 11.0303 1.54405 11.539 1.91912 11.9141C2.29419 12.2891 2.8029 12.4998 3.33333 12.4998H12.6667C13.1971 12.4998 13.7058 12.2891 14.0809 11.9141C14.456 11.539 14.6667 11.0303 14.6667 10.4998V6.49984C14.6667 5.9694 14.456 5.4607 14.0809 5.08562C13.7058 4.71055 13.1971 4.49984 12.6667 4.49984H3.33333ZM8 11.1665C7.47258 11.1665 6.95701 11.0101 6.51848 10.7171C6.07995 10.4241 5.73815 10.0076 5.53632 9.52033C5.33449 9.03306 5.28168 8.49688 5.38457 7.9796C5.48747 7.46231 5.74144 6.98716 6.11438 6.61422C6.48732 6.24128 6.96248 5.9873 7.47976 5.88441C7.99704 5.78152 8.53322 5.83432 9.02049 6.03616C9.50776 6.23799 9.92424 6.57979 10.2173 7.01832C10.5103 7.45685 10.6667 7.97242 10.6667 8.49984C10.6667 9.20708 10.3857 9.88536 9.88562 10.3855C9.38552 10.8856 8.70724 11.1665 8 11.1665ZM8 7.1665C7.73629 7.1665 7.47851 7.2447 7.25924 7.39121C7.03997 7.53772 6.86908 7.74596 6.76816 7.98959C6.66724 8.23323 6.64084 8.50132 6.69229 8.75996C6.74373 9.0186 6.87072 9.25618 7.05719 9.44265C7.24366 9.62912 7.48124 9.7561 7.73988 9.80755C7.99852 9.859 8.26661 9.83259 8.51024 9.73168C8.75388 9.63076 8.96212 9.45986 9.10863 9.2406C9.25513 9.02133 9.33333 8.76355 9.33333 8.49984C9.33333 8.14622 9.19286 7.80708 8.94281 7.55703C8.69276 7.30698 8.35362 7.1665 8 7.1665ZM3.33333 5.83317C3.20148 5.83317 3.07259 5.87227 2.96295 5.94552C2.85332 6.01878 2.76787 6.1229 2.71741 6.24471C2.66696 6.36653 2.65375 6.50058 2.67948 6.6299C2.7052 6.75922 2.76869 6.87801 2.86193 6.97124C2.95516 7.06448 3.07395 7.12797 3.20327 7.15369C3.33259 7.17942 3.46664 7.16622 3.58846 7.11576C3.71027 7.0653 3.81439 6.97985 3.88765 6.87022C3.9609 6.76059 4 6.63169 4 6.49984C4 6.32303 3.92976 6.15346 3.80474 6.02843C3.67971 5.90341 3.51014 5.83317 3.33333 5.83317ZM12 6.49984C12 6.63169 12.0391 6.76059 12.1124 6.87022C12.1856 6.97985 12.2897 7.0653 12.4115 7.11576C12.5334 7.16622 12.6674 7.17942 12.7967 7.15369C12.926 7.12797 13.0448 7.06448 13.1381 6.97124C13.2313 6.87801 13.2948 6.75922 13.3205 6.6299C13.3462 6.50058 13.333 6.36653 13.2826 6.24471C13.2321 6.1229 13.1467 6.01878 13.037 5.94552C12.9274 5.87227 12.7985 5.83317 12.6667 5.83317C12.4899 5.83317 12.3203 5.90341 12.1953 6.02843C12.0702 6.15346 12 6.32303 12 6.49984ZM3.33333 9.83317C3.20148 9.83317 3.07259 9.87227 2.96295 9.94552C2.85332 10.0188 2.76787 10.1229 2.71741 10.2447C2.66696 10.3665 2.65375 10.5006 2.67948 10.6299C2.7052 10.7592 2.76869 10.878 2.86193 10.9712C2.95516 11.0645 3.07395 11.128 3.20327 11.1537C3.33259 11.1794 3.46664 11.1662 3.58846 11.1158C3.71027 11.0653 3.81439 10.9799 3.88765 10.8702C3.9609 10.7606 4 10.6317 4 10.4998C4 10.323 3.92976 10.1535 3.80474 10.0284C3.67971 9.90341 3.51014 9.83317 3.33333 9.83317ZM12 10.4998C12 10.6317 12.0391 10.7606 12.1124 10.8702C12.1856 10.9799 12.2897 11.0653 12.4115 11.1158C12.5334 11.1662 12.6674 11.1794 12.7967 11.1537C12.926 11.128 13.0448 11.0645 13.1381 10.9712C13.2313 10.878 13.2948 10.7592 13.3205 10.6299C13.3462 10.5006 13.333 10.3665 13.2826 10.2447C13.2321 10.1229 13.1467 10.0188 13.037 9.94552C12.9274 9.87227 12.7985 9.83317 12.6667 9.83317C12.4899 9.83317 12.3203 9.90341 12.1953 10.0284C12.0702 10.1535 12 10.323 12 10.4998Z" fill="#000212"/>
</svg>
