<svg width="24" height="24" viewBox="0 0 24 24" fill="none" xmlns="http://www.w3.org/2000/svg">
<g id="fi-rr-interrogation" clip-path="url(#clip0_37_1299)">
<path id="Vector" d="M12 0C9.62663 0 7.30655 0.703788 5.33316 2.02236C3.35977 3.34094 1.8217 5.21509 0.913451 7.4078C0.00519943 9.60051 -0.232441 12.0133 0.230582 14.3411C0.693605 16.6689 1.83649 18.8071 3.51472 20.4853C5.19295 22.1635 7.33115 23.3064 9.65892 23.7694C11.9867 24.2324 14.3995 23.9948 16.5922 23.0866C18.7849 22.1783 20.6591 20.6402 21.9776 18.6668C23.2962 16.6935 24 14.3734 24 12C23.9966 8.81846 22.7312 5.76821 20.4815 3.51852C18.2318 1.26883 15.1815 0.00344108 12 0V0ZM12 22C10.0222 22 8.08879 21.4135 6.4443 20.3147C4.79981 19.2159 3.51809 17.6541 2.76121 15.8268C2.00433 13.9996 1.8063 11.9889 2.19215 10.0491C2.578 8.10929 3.53041 6.32746 4.92894 4.92893C6.32746 3.53041 8.10929 2.578 10.0491 2.19215C11.9889 1.8063 13.9996 2.00433 15.8268 2.7612C17.6541 3.51808 19.2159 4.79981 20.3147 6.4443C21.4135 8.08879 22 10.0222 22 12C21.9971 14.6513 20.9426 17.1931 19.0679 19.0679C17.1931 20.9426 14.6513 21.9971 12 22Z" fill="#A2A2A2"/>
<path id="Vector_2" d="M12.7172 5.06271C12.1406 4.95764 11.5478 4.9806 10.981 5.12995C10.4142 5.27931 9.88715 5.55141 9.43714 5.92701C8.98712 6.30262 8.62516 6.77253 8.37685 7.30351C8.12855 7.83449 7.99998 8.41354 8.00024 8.99971C8.00024 9.26493 8.1056 9.51928 8.29314 9.70682C8.48067 9.89435 8.73503 9.99971 9.00024 9.99971C9.26546 9.99971 9.51981 9.89435 9.70735 9.70682C9.89488 9.51928 10.0002 9.26493 10.0002 8.99971C9.99999 8.70549 10.0647 8.41483 10.1896 8.14847C10.3146 7.88211 10.4968 7.6466 10.7233 7.45874C10.9497 7.27088 11.2148 7.1353 11.4997 7.06166C11.7845 6.98802 12.0821 6.97813 12.3712 7.03271C12.7663 7.10939 13.1295 7.3021 13.4145 7.5862C13.6995 7.8703 13.8933 8.23291 13.9712 8.62771C14.0499 9.04211 13.9956 9.47079 13.816 9.85245C13.6364 10.2341 13.3407 10.5492 12.9712 10.7527C12.3594 11.1072 11.8538 11.6192 11.5072 12.2355C11.1605 12.8518 10.9854 13.5498 11.0002 14.2567V14.9997C11.0002 15.2649 11.1056 15.5193 11.2931 15.7068C11.4807 15.8944 11.735 15.9997 12.0002 15.9997C12.2655 15.9997 12.5198 15.8944 12.7073 15.7068C12.8949 15.5193 13.0002 15.2649 13.0002 14.9997V14.2567C12.9877 13.9087 13.067 13.5636 13.2303 13.256C13.3936 12.9484 13.635 12.6893 13.9302 12.5047C14.6547 12.1068 15.2382 11.4942 15.6003 10.7511C15.9624 10.0081 16.0855 9.17107 15.9525 8.35524C15.8195 7.5394 15.4371 6.7848 14.8577 6.19521C14.2784 5.60561 13.5306 5.20997 12.7172 5.06271Z" fill="#A2A2A2"/>
<path id="Vector_3" d="M13.0003 17.9996C13.0003 17.4474 12.5525 16.9996 12.0002 16.9996C11.448 16.9996 11.0002 17.4474 11.0002 17.9996C11.0002 18.5519 11.448 18.9996 12.0002 18.9996C12.5525 18.9996 13.0003 18.5519 13.0003 17.9996Z" fill="#A2A2A2"/>
</g>
<defs>
<clipPath id="clip0_37_1299">
<rect width="24" height="24" fill="white"/>
</clipPath>
</defs>
</svg>
