<svg width="21" height="21" viewBox="0 0 21 21" fill="none" xmlns="http://www.w3.org/2000/svg">
<g id="fi-rr-eye-crossed" clip-path="url(#clip0_416_19729)">
<path id="Vector" d="M19.8924 8.34904C19.1401 7.11714 18.1912 6.01675 17.0833 5.09154L19.4166 2.75821C19.5684 2.60104 19.6524 2.39054 19.6505 2.17204C19.6486 1.95354 19.5609 1.74453 19.4064 1.59003C19.2519 1.43552 19.0429 1.34788 18.8244 1.34598C18.6059 1.34408 18.3954 1.42808 18.2383 1.57987L15.7008 4.12071C14.1277 3.18639 12.3294 2.69943 10.4999 2.71237C5.34075 2.71237 2.40075 6.24404 1.10742 8.34904C0.707861 8.9953 0.496216 9.74008 0.496216 10.4999C0.496216 11.2597 0.707861 12.0045 1.10742 12.6507C1.85972 13.8826 2.80866 14.983 3.91659 15.9082L1.58325 18.2415C1.50366 18.3184 1.44018 18.4104 1.3965 18.512C1.35283 18.6137 1.32984 18.7231 1.32888 18.8337C1.32792 18.9444 1.349 19.0541 1.3909 19.1565C1.4328 19.2589 1.49468 19.352 1.57292 19.4302C1.65117 19.5084 1.74421 19.5703 1.84663 19.6122C1.94904 19.6541 2.05877 19.6752 2.16942 19.6742C2.28007 19.6733 2.38942 19.6503 2.49109 19.6066C2.59276 19.563 2.68471 19.4995 2.76159 19.4199L5.30492 16.8765C6.87598 17.8107 8.67215 18.2985 10.4999 18.2874C15.6591 18.2874 18.5991 14.7557 19.8924 12.6507C20.292 12.0045 20.5036 11.2597 20.5036 10.4999C20.5036 9.74008 20.292 8.9953 19.8924 8.34904ZM2.52742 11.7782C2.29003 11.3941 2.1643 10.9514 2.1643 10.4999C2.1643 10.0483 2.29003 9.60567 2.52742 9.22154C3.63909 7.41654 6.15159 4.37904 10.4999 4.37904C11.8835 4.37129 13.2476 4.70474 14.4716 5.34987L12.7941 7.02737C11.994 6.49621 11.0348 6.2582 10.0793 6.35375C9.12372 6.44929 8.23064 6.87249 7.55159 7.55154C6.87254 8.2306 6.44933 9.12367 6.35379 10.0792C6.25825 11.0348 6.49626 11.994 7.02742 12.794L5.10242 14.719C4.08167 13.8938 3.21062 12.899 2.52742 11.7782ZM12.9999 10.4999C12.9999 11.1629 12.7365 11.7988 12.2677 12.2676C11.7988 12.7365 11.163 12.9999 10.4999 12.9999C10.1287 12.9984 9.76259 12.913 9.42909 12.7499L12.7499 9.42904C12.913 9.76254 12.9985 10.1286 12.9999 10.4999ZM7.99992 10.4999C7.99992 9.83683 8.26331 9.20095 8.73215 8.73211C9.20099 8.26327 9.83688 7.99987 10.4999 7.99987C10.8712 8.00131 11.2373 8.08678 11.5708 8.24987L8.24992 11.5707C8.08683 11.2372 8.00136 10.8711 7.99992 10.4999ZM18.4724 11.7782C17.3608 13.5832 14.8483 16.6207 10.4999 16.6207C9.11636 16.6285 7.75222 16.295 6.52825 15.6499L8.20575 13.9724C9.00581 14.5035 9.965 14.7415 10.9206 14.646C11.8761 14.5505 12.7692 14.1273 13.4483 13.4482C14.1273 12.7692 14.5505 11.8761 14.646 10.9205C14.7416 9.96495 14.5036 9.00576 13.9724 8.20571L15.8974 6.28071C16.9182 7.10594 17.7892 8.10075 18.4724 9.22154C18.7098 9.60567 18.8355 10.0483 18.8355 10.4999C18.8355 10.9514 18.7098 11.3941 18.4724 11.7782Z" fill="#555555"/>
</g>
<defs>
<clipPath id="clip0_416_19729">
<rect width="20" height="20" fill="white" transform="translate(0.5 0.5)"/>
</clipPath>
</defs>
</svg>
