<svg width="16" height="17" viewBox="0 0 16 17" fill="none" xmlns="http://www.w3.org/2000/svg">
<path d="M15.2205 6.61444L12.6345 4.02844C12.3696 3.77266 11.9476 3.78 11.6918 4.04485C11.4423 4.30319 11.4423 4.71278 11.6918 4.97113L14.2778 7.55713C14.3546 7.63547 14.4218 7.72279 14.4778 7.81713C14.4678 7.81713 14.4598 7.81178 14.4498 7.81178L3.9938 7.83313C3.62562 7.83313 3.32715 8.1316 3.32715 8.49978C3.32715 8.86797 3.62562 9.16644 3.9938 9.16644L14.4458 9.1451C14.4645 9.1451 14.4798 9.13575 14.4978 9.13444C14.4387 9.24722 14.3637 9.35094 14.2751 9.44244L11.6891 12.0284C11.4243 12.2842 11.417 12.7063 11.6727 12.9711C11.9285 13.2359 12.3506 13.2433 12.6154 12.9875C12.621 12.9821 12.6264 12.9767 12.6318 12.9711L15.2178 10.3851C16.2588 9.34375 16.2588 7.65575 15.2178 6.61444H15.2205Z" fill="#F20C0C"/>
<path d="M4.66788 15.1667H3.33453C2.22997 15.1667 1.33453 14.2712 1.33453 13.1667V3.83334C1.33453 2.72878 2.22997 1.83334 3.33453 1.83334H4.66788C5.03606 1.83334 5.33453 1.53487 5.33453 1.16669C5.33453 0.7985 5.0361 0.5 4.66788 0.5H3.33453C1.49453 0.502219 0.00343945 1.99331 0.0012207 3.83334V13.1667C0.00343945 15.0067 1.49453 16.4978 3.33456 16.5H4.66791C5.0361 16.5 5.33456 16.2015 5.33456 15.8333C5.33456 15.4652 5.0361 15.1667 4.66788 15.1667Z" fill="#F20C0C"/>
</svg>
