<svg width="48" height="49" viewBox="0 0 48 49" fill="none" xmlns="http://www.w3.org/2000/svg">
<rect y="0.5" width="48" height="48" rx="24" fill="#03C03C"/>
<path d="M13.5131 27.987L17.6791 32.153C18.2417 32.7154 19.0046 33.0314 19.8001 33.0314C20.5956 33.0314 21.3586 32.7154 21.9211 32.153L34.7871 19.287C34.9693 19.0984 35.0701 18.8458 35.0678 18.5836C35.0655 18.3214 34.9604 18.0706 34.775 17.8852C34.5895 17.6998 34.3387 17.5946 34.0765 17.5923C33.8143 17.59 33.5617 17.6908 33.3731 17.873L20.5071 30.739C20.3196 30.9265 20.0653 31.0318 19.8001 31.0318C19.535 31.0318 19.2807 30.9265 19.0931 30.739L14.9271 26.573C14.7385 26.3908 14.4859 26.29 14.2237 26.2923C13.9615 26.2946 13.7107 26.3998 13.5253 26.5852C13.3399 26.7706 13.2347 27.0214 13.2325 27.2836C13.2302 27.5458 13.331 27.7984 13.5131 27.987Z" fill="#E6F9EC"/>
</svg>
